<?xml version="1.0" encoding="iso-8859-1"?>
<!-- Generator: Adobe Illustrator 19.0.0, SVG Export Plug-In . SVG Version: 6.00 Build 0)  -->
<svg version="1.1" id="Capa_1" xmlns="http://www.w3.org/2000/svg" xmlns:xlink="http://www.w3.org/1999/xlink" x="0px" y="0px"
	 viewBox="0 0 464 464" style="enable-background:new 0 0 464 464;" xml:space="preserve">
<path style="fill:#DD3E46;" d="M462.136,329.716L432,216.685c0,30.928-89.544,56-200,56s-200-25.072-200-56L1.864,329.716
	c-1.171,2.139-1.811,4.529-1.864,6.968c0,30.928,103.872,56,232,56s232-25.072,232-56
	C463.947,334.246,463.307,331.856,462.136,329.716L462.136,329.716z"/>
<ellipse style="fill:#CFDFE8;" cx="232" cy="216.676" rx="200" ry="56"/>
<path style="fill:#FDBD40;" d="M101.704,211.725l124.8,27.744c3.608,0.798,7.344,0.818,10.96,0.056l125.944-26.512
	c11.995-2.519,20.585-13.096,20.592-25.352v-23.064c0.003-7.567-3.302-14.756-9.048-19.68l-32.8-28.096
	c-8.461-7.238-20.601-8.259-30.152-2.536c-12.265,7.364-28.178,3.392-35.543-8.874c-0.343-0.571-0.663-1.155-0.961-1.75l-6.4-12.728
	c-6.389-12.795-21.941-17.989-34.737-11.6c-0.966,0.482-1.901,1.025-2.799,1.624l-11.72,7.816
	c-7.389,4.921-16.781,5.721-24.896,2.12L156,73.549c-11.533-5.121-25.077-1.192-32.08,9.304l-17.648,26.48
	c-1.481,2.219-3.294,4.197-5.376,5.864l-22.224,17.72c-8.75,6.998-12.008,18.83-8.072,29.32l12.472,33.264
	C86.136,203.714,93.148,209.819,101.704,211.725L101.704,211.725z"/>
<g>
	<path style="fill:#E97424;" d="M136,144.677c-4.418,0-8-3.582-8-8c0-17.673,14.327-32,32-32c4.418,0,8,3.582,8,8s-3.582,8-8,8
		c-8.837,0-16,7.163-16,16C144,141.095,140.418,144.677,136,144.677z"/>
	<path style="fill:#E97424;" d="M208,168.677c-4.418,0-8-3.582-8-8s3.582-8,8-8c8.837,0,16-7.163,16-16c0-4.418,3.582-8,8-8
		s8,3.582,8,8C240,154.35,225.673,168.677,208,168.677z"/>
	<path style="fill:#E97424;" d="M264,208.677c-4.418,0-8-3.582-8-8c0-17.673,14.327-32,32-32c4.418,0,8,3.582,8,8s-3.582,8-8,8
		c-8.837,0-16,7.163-16,16C272,205.095,268.418,208.677,264,208.677z"/>
	<path style="fill:#E97424;" d="M176,200.677c-13.255,0-24-10.745-24-24c0-4.418,3.582-8,8-8s8,3.582,8,8s3.582,8,8,8s8,3.582,8,8
		S180.418,200.677,176,200.677z"/>
	<path style="fill:#E97424;" d="M344,176.677c-4.418,0-8-3.582-8-8s-3.582-8-8-8s-8-3.582-8-8s3.582-8,8-8c13.255,0,24,10.745,24,24
		C352,173.095,348.418,176.677,344,176.677z"/>
</g>
<path style="fill:#F4F4E6;" d="M168,319.316h128v32H168V319.316z"/>
<g>
</g>
<g>
</g>
<g>
</g>
<g>
</g>
<g>
</g>
<g>
</g>
<g>
</g>
<g>
</g>
<g>
</g>
<g>
</g>
<g>
</g>
<g>
</g>
<g>
</g>
<g>
</g>
<g>
</g>
</svg>
